HIERARCHY
ROOT SpineBase
{
  OFFSET 0.000000 0.000000 0.000000
  CHANNELS 6 Xposition Yposition Zposition Zrotation Xrotation Yrotation
  JOINT SpineMid
  {
    OFFSET 0.000000 35.402395 0.000000
    CHANNELS 3 Zrotation Xrotation Yrotation
    JOINT SpineShoulder
    {
      OFFSET 2.224624 26.077137 -2.522468
      CHANNELS 3 Zrotation Xrotation Yrotation
      JOINT Neck
      {
        OFFSET 0.621264 8.609414 -0.946191
        CHANNELS 3 Zrotation Xrotation Yrotation
        JOINT Head
        {
          OFFSET 1.757174 13.365685 7.367573
          CHANNELS 3 Zrotation Xrotation Yrotation
          End Site
          {
            OFFSET 0 0 0
          }
        }
      }
      JOINT ShoulderLeft
      {
        OFFSET 0.501065 -7.021545 -13.258305
        CHANNELS 3 Zrotation Xrotation Yrotation
        JOINT ElbowLeft
        {
          OFFSET 4.241667 -29.886289 -6.238732
          CHANNELS 3 Zrotation Xrotation Yrotation
          JOINT WristLeft
          {
            OFFSET 9.031355 -22.633867 0.031581
            CHANNELS 3 Zrotation Xrotation Yrotation
            JOINT HandLeft
            {
              OFFSET 1.042759 -6.346560 3.141964
              CHANNELS 3 Zrotation Xrotation Yrotation
              JOINT HandTipLeft
              {
                OFFSET 2.292842 -6.896766 2.956819
                CHANNELS 3 Zrotation Xrotation Yrotation
                End Site
                {
                  OFFSET 0 0 0
                }
              }
              JOINT ThumbLeft
              {
                OFFSET 5.175482 4.046426 -2.004125
                CHANNELS 3 Zrotation Xrotation Yrotation
                End Site
                {
                  OFFSET 0 0 0
                }
              }
            }
          }
        }
      }
      JOINT ShoulderRight
      {
        OFFSET 10.458651 -12.612217 -15.142508
        CHANNELS 3 Zrotation Xrotation Yrotation
        JOINT ElbowRight
        {
          OFFSET 2.875793 -29.669615 -4.379288
          CHANNELS 3 Zrotation Xrotation Yrotation
          JOINT WristRight
          {
            OFFSET -2.221935 -23.627539 -4.302604
            CHANNELS 3 Zrotation Xrotation Yrotation
            JOINT HandRight
            {
              OFFSET 3.587129 -0.686062 6.174761
              CHANNELS 3 Zrotation Xrotation Yrotation
              JOINT HandTipRight
              {
                OFFSET -0.441636 -2.580658 -0.298127
                CHANNELS 3 Zrotation Xrotation Yrotation
                End Site
                {
                  OFFSET 0 0 0
                }
              }
              JOINT ThumbRight
              {
                OFFSET -1.255909 0.663104 -2.528083
                CHANNELS 3 Zrotation Xrotation Yrotation
                End Site
                {
                  OFFSET 0 0 0
                }
              }
            }
          }
        }
      }
    }
  }
  JOINT HipLeft
  {
    OFFSET -4.492808 0.896748 -7.780633
    CHANNELS 3 Zrotation Xrotation Yrotation
    JOINT KneeLeft
    {
      OFFSET 7.800288 -39.696117 6.789653
      CHANNELS 3 Zrotation Xrotation Yrotation
      JOINT AnkleLeft
      {
        OFFSET -17.933822 -32.413890 14.869979
        CHANNELS 3 Zrotation Xrotation Yrotation
        JOINT FootLeft
        {
          OFFSET 2.681593 -8.914792 0.634435
          CHANNELS 3 Zrotation Xrotation Yrotation
          End Site
          {
            OFFSET 0 0 0
          }
        }
      }
    }
  }
  JOINT HipRight
  {
    OFFSET 5.149823 0.043283 -0.582851
    CHANNELS 3 Zrotation Xrotation Yrotation
    JOINT KneeRight
    {
      OFFSET -22.464766 -31.712564 11.274690
      CHANNELS 3 Zrotation Xrotation Yrotation
      JOINT AnkleRight
      {
        OFFSET 17.500804 -41.946237 -6.612660
        CHANNELS 3 Zrotation Xrotation Yrotation
        JOINT FootRight
        {
          OFFSET -1.810386 -6.787007 -7.727587
          CHANNELS 3 Zrotation Xrotation Yrotation
          End Site
          {
            OFFSET 0 0 0
          }
        }
      }
    }
  }
}
MOTION
Frames: 11
Frame Time: 0.033333
-24.595832 82.726288 317.031592 -2.221355 -2.789010 -27.912686 2.565072 5.293408 27.876429 -0.812364 -1.841769 0.108798 3.928905 -0.905974 -3.157018 0.000000 0.000000 0.000000 0.779508 -1.521200 -1.145981 -3.576861 -3.289148 -1.411856 -29.166285 11.252592 -7.654121 17.346002 2.337343 11.382540 0.000000 0.000000 0.000000 0.000000 0.000000 0.000000 -1.100649 -2.855477 -0.726632 6.067408 -10.075456 1.004134 -23.614479 40.083634 -4.629319 37.389147 -29.223613 25.631828 0.000000 0.000000 0.000000 0.000000 0.000000 0.000000 -2.638950 1.480107 27.268988 14.112872 3.412384 3.628768 24.144197 57.565690 0.126839 0.000000 0.000000 0.000000 9.951788 10.833988 29.389850 -18.864645 2.764431 0.128830 -1.247825 -7.003260 6.801894 0.000000 0.000000 0.000000
-24.600855 82.763444 317.036876 -2.195909 -2.786344 -27.035510 2.606691 5.294358 26.994775 -0.848462 -1.808524 0.101734 4.709317 -1.476002 -3.484542 0.000000 0.000000 0.000000 5.703375 2.130978 -1.818905 -8.532932 -6.769711 -0.990123 -29.523076 13.229836 -7.242827 17.810460 0.692007 11.598229 0.000000 0.000000 0.000000 0.000000 0.000000 0.000000 2.307692 -3.051812 -1.166515 4.407185 -12.410288 1.857844 -25.597810 42.309338 -5.388586 36.946406 -31.229008 28.114214 0.000000 0.000000 0.000000 0.000000 0.000000 0.000000 -2.957644 1.370480 26.347328 14.485975 3.567508 3.592236 22.447973 55.706312 1.065997 0.000000 0.000000 0.000000 9.470065 10.001398 28.554348 -19.617576 1.334307 -0.305859 -2.977062 -17.556143 14.495127 0.000000 0.000000 0.000000
-24.668505 82.949092 317.246625 -2.318001 -2.980553 -24.910552 2.717608 5.196136 24.852830 -0.900851 -1.743257 0.082695 6.486710 -1.503275 -4.319206 0.000000 0.000000 0.000000 12.811225 7.029772 -3.296107 -14.785918 -11.138879 -0.736039 -27.188060 13.523261 -6.544525 15.668682 -0.916477 10.165798 0.000000 0.000000 0.000000 0.000000 0.000000 0.000000 4.898891 -3.555539 -1.485786 3.842363 -13.299833 2.389134 -52.068794 62.344394 9.609256 65.486505 -43.779773 53.479734 0.000000 0.000000 0.000000 0.000000 0.000000 0.000000 -3.101785 2.076643 24.329727 14.700577 3.425106 3.490624 21.279979 54.428795 1.722851 0.000000 0.000000 0.000000 9.100519 9.544439 26.158862 -20.611582 -0.637915 -0.680310 0.025340 -30.961819 20.641475 0.000000 0.000000 0.000000
-24.708314 83.258970 317.549168 -2.518404 -3.255049 -22.413188 2.978766 5.252373 22.327256 -0.863229 -1.645376 0.075856 8.009108 -1.826929 -5.083316 0.000000 0.000000 0.000000 20.696989 12.146988 -5.631790 -21.752538 -15.942634 -1.092590 -23.881461 12.713147 -5.886639 12.728348 -1.208604 8.632417 0.000000 0.000000 0.000000 0.000000 0.000000 0.000000 6.441159 -3.806323 -1.678860 3.640165 -12.513130 2.422634 -53.104162 65.136153 2.757030 72.627557 -39.324229 62.976749 0.000000 0.000000 0.000000 0.000000 0.000000 0.000000 -3.347432 2.817707 21.908563 15.518028 3.488336 3.492464 18.970889 51.907885 2.586768 0.000000 0.000000 0.000000 8.982240 9.624233 23.175081 -22.111335 -2.870943 -1.011734 15.022194 -51.930348 25.573852 0.000000 0.000000 0.000000
-24.787963 83.605179 317.926300 -2.631432 -3.465336 -22.939572 2.953487 5.381099 22.844062 -0.873154 -1.605019 0.069064 9.252369 -2.216700 -5.676318 0.000000 0.000000 0.000000 28.100361 16.053484 -8.361699 -27.726023 -19.518136 -1.588841 -21.075768 10.372896 -5.766545 10.211292 -0.171617 7.448672 0.000000 0.000000 0.000000 0.000000 0.000000 0.000000 7.922298 -4.566974 -1.882919 2.914260 -10.619656 2.358922 -49.971698 61.303961 2.081174 69.485986 -43.942575 59.992814 0.000000 0.000000 0.000000 0.000000 0.000000 0.000000 -3.253175 2.994067 22.435146 15.316103 3.647620 3.351124 20.277250 51.396289 2.275456 0.000000 0.000000 0.000000 8.440963 10.637878 22.976689 -23.735026 -5.332881 -1.250724 21.511088 -54.022095 24.646988 0.000000 0.000000 0.000000
-24.822300 83.947719 318.278177 -2.583995 -3.515697 -19.410964 3.353898 5.284810 19.307513 -0.846719 -1.565801 0.073244 8.809524 -3.381651 -5.307508 0.000000 0.000000 0.000000 33.716206 18.096967 -10.679638 -32.376280 -21.458419 -1.945491 -17.651021 5.988597 -5.805886 7.303618 3.205556 6.587226 0.000000 0.000000 0.000000 0.000000 0.000000 0.000000 8.233680 -5.669048 -1.960941 4.295378 -10.427395 2.326307 -59.652324 61.843887 13.500940 71.129889 -49.791340 59.417456 0.000000 0.000000 0.000000 0.000000 0.000000 0.000000 -2.388372 4.359251 19.249966 14.119843 3.038826 2.917169 19.180616 50.859790 3.147020 0.000000 0.000000 0.000000 9.010235 10.785035 18.988249 -25.610296 -7.256868 -1.686831 17.969721 -38.904381 15.003718 0.000000 0.000000 0.000000
-25.050833 84.177188 318.874207 -2.315919 -3.485202 -12.666525 4.013805 4.893155 12.573832 -0.838482 -1.554003 0.082681 9.148162 -4.164659 -5.563941 0.000000 0.000000 0.000000 37.186847 18.577523 -12.177220 -34.073832 -21.789655 -1.366212 -12.964370 2.144059 -4.154790 2.861345 5.880791 4.671020 0.000000 0.000000 0.000000 0.000000 0.000000 0.000000 8.946941 -6.028503 -2.095263 4.914315 -10.830356 2.447773 -61.392312 59.630895 17.744124 72.351235 -52.698681 58.333305 0.000000 0.000000 0.000000 0.000000 0.000000 0.000000 -0.717227 6.660470 13.109601 12.372328 1.678806 2.266739 17.517670 50.986687 4.318478 0.000000 0.000000 0.000000 9.488868 8.858223 12.601834 -26.090507 -7.364467 -2.065355 14.285769 -7.799219 5.582626 0.000000 0.000000 0.000000
-25.494258 84.260186 319.658846 -1.930272 -3.486368 -3.467789 4.661209 4.104818 3.415283 -0.900217 -1.602115 0.086821 9.343690 -3.864823 -5.900566 0.000000 0.000000 0.000000 38.937477 18.347499 -12.970147 -33.382839 -21.124931 -0.149457 -6.706341 -0.691136 -0.735245 -4.028771 8.465656 1.567852 0.000000 0.000000 0.000000 0.000000 0.000000 0.000000 9.798447 -6.540389 -2.264638 5.911706 -11.086348 2.539249 -63.061458 57.430336 21.412793 69.521240 -55.337322 54.333807 0.000000 0.000000 0.000000 0.000000 0.000000 0.000000 2.368155 9.228008 4.555623 9.987627 -0.117344 1.309496 15.074844 51.645408 5.969544 0.000000 0.000000 0.000000 9.230047 6.127144 3.984343 -26.190744 -7.513899 -2.627367 11.927647 9.109683 5.792492 0.000000 0.000000 0.000000
-25.946209 84.357505 320.299060 -1.428207 -3.276264 7.453153 5.588034 3.156130 -7.438470 -0.755727 -1.595675 0.126254 8.630918 -4.377432 -5.966690 0.000000 0.000000 0.000000 37.113663 16.079667 -12.145650 -30.153239 -18.073623 1.840683 0.541853 -3.111435 3.603081 -10.944383 10.565175 -1.967547 0.000000 0.000000 0.000000 0.000000 0.000000 0.000000 11.170359 -7.169668 -2.496030 5.448685 -11.332852 2.900539 -64.686784 55.064535 26.351483 66.305537 -58.783666 49.251308 0.000000 0.000000 0.000000 0.000000 0.000000 0.000000 7.097375 10.658474 -5.830933 6.875473 -1.882448 -0.081696 11.611042 52.563398 8.341772 0.000000 0.000000 0.000000 8.466192 2.019081 -5.243656 -24.863440 -4.513115 -2.793659 9.588642 15.424895 6.469662 0.000000 0.000000 0.000000
-26.342757 84.108433 321.018989 -0.250793 -2.735108 17.035126 6.052583 2.073702 -16.875965 -0.775584 -1.658422 0.167053 9.119504 -4.425461 -7.011500 0.000000 0.000000 0.000000 34.563413 13.289781 -11.112578 -26.066119 -14.857777 3.699325 4.903462 -4.980105 7.194394 -16.103820 12.668749 -4.403697 0.000000 0.000000 0.000000 0.000000 0.000000 0.000000 12.066355 -7.591205 -2.694345 5.464280 -12.021088 3.277020 -64.800049 51.560436 31.732859 59.497514 -61.939608 39.648645 0.000000 0.000000 0.000000 0.000000 0.000000 0.000000 10.755445 10.059165 -14.947683 4.194699 -2.428709 -1.656309 5.835176 52.151606 11.729953 0.000000 0.000000 0.000000 6.051295 -1.994429 -12.756301 -21.708394 0.902347 -2.482279 5.817483 14.374518 7.367017 0.000000 0.000000 0.000000
-27.257327 83.728825 322.254119 0.889250 -2.523961 23.822566 6.141612 1.333112 -23.536364 -0.892795 -1.691159 0.185338 10.433579 -4.251236 -8.394653 0.000000 0.000000 0.000000 32.739161 11.234576 -10.507094 -21.600399 -11.663669 5.340502 5.836970 -5.980453 9.527707 -18.238119 12.354022 -6.049113 0.000000 0.000000 0.000000 0.000000 0.000000 0.000000 12.888722 -7.428339 -2.919433 5.650848 -13.115247 3.714133 -60.883195 47.181467 34.363715 45.238666 -62.297125 23.413458 0.000000 0.000000 0.000000 0.000000 0.000000 0.000000 14.141550 9.236790 -21.244555 1.555181 -2.523900 -3.357777 -0.940107 51.323994 15.308621 0.000000 0.000000 0.000000 4.530473 -4.020857 -18.132760 -19.279126 5.425871 -2.283864 5.318993 7.612989 5.135252 0.000000 0.000000 0.000000
